<?xml version="1.0" encoding="UTF-8" standalone="no"?>
<!-- Created with Inkscape (http://www.inkscape.org/) -->

<svg
   width="51mm"
   height="36mm"
   viewBox="0 0 51 36"
   version="1.1"
   id="svg5"
   xml:space="preserve"
   inkscape:version="1.3 (0e150ed6c4, 2023-07-21)"
   sodipodi:docname="HSH-Logo.svg"
   xmlns:inkscape="http://www.inkscape.org/namespaces/inkscape"
   xmlns:sodipodi="http://sodipodi.sourceforge.net/DTD/sodipodi-0.dtd"
   xmlns="http://www.w3.org/2000/svg"
   xmlns:svg="http://www.w3.org/2000/svg">&#10;   <style
   id="style1">&#10;    @font-face { font-family: UnitBoldItalic; src: url(&quot;https://f1.hs-hannover.de/typo3conf/ext/ui_sitepackage/Resources/Public/assets/fonts/UnitSlabWebPro-BoldIta W01 Rg.998512d.ttf&quot;) format(&quot;truetype&quot;); }&#10;    @font-face { font-family: UnitSlabLight; src: url(&quot;/typo3conf/ext/ui_sitepackage/Resources/Public/assets/fonts/UnitSlabWebW06-Light.04f9544.ttf&quot;) format(&quot;truetype&quot;); }&#10;  </style>&#10;   <sodipodi:namedview
   id="namedview7"
   pagecolor="#ffffff"
   bordercolor="#666666"
   borderopacity="1.0"
   inkscape:showpageshadow="2"
   inkscape:pageopacity="0.0"
   inkscape:pagecheckerboard="0"
   inkscape:deskcolor="#d1d1d1"
   inkscape:document-units="mm"
   showgrid="false"
   inkscape:zoom="1.1893044"
   inkscape:cx="105.10345"
   inkscape:cy="458.67148"
   inkscape:window-width="2560"
   inkscape:window-height="1377"
   inkscape:window-x="-8"
   inkscape:window-y="-8"
   inkscape:window-maximized="1"
   inkscape:current-layer="svg5"><inkscape:page
     x="0"
     y="0"
     width="51"
     height="36"
     id="page26"
     margin="0"
     bleed="0" /><inkscape:page
     x="5.9604645e-08"
     y="41.811733"
     width="51"
     height="36"
     id="page70"
     margin="0"
     bleed="0" /><inkscape:page
     x="1.1920922e-08"
     y="83.623466"
     width="51"
     height="36"
     id="page71"
     margin="0"
     bleed="0" /><inkscape:page
     x="1.1920922e-08"
     y="125.4352"
     width="51"
     height="36"
     id="page72"
     margin="0"
     bleed="0" /><inkscape:page
     x="1.1920922e-08"
     y="167.24693"
     width="51"
     height="36"
     id="page73"
     margin="0"
     bleed="0" /><inkscape:page
     x="1.1920922e-08"
     y="209.05867"
     width="51"
     height="36"
     id="page74"
     margin="0"
     bleed="0" /></sodipodi:namedview><defs
   id="defs2">&#10;        &#10;        &#10;        &#10;        &#10;        &#10;        &#10;        &#10;        &#10;        &#10;        &#10;        &#10;        &#10;        &#10;        &#10;        &#10;        &#10;        &#10;        &#10;        &#10;        &#10;        &#10;        &#10;        &#10;        &#10;        &#10;        &#10;        &#10;        &#10;        &#10;        &#10;        &#10;        &#10;        &#10;        &#10;        &#10;        &#10;        &#10;        &#10;        &#10;        &#10;        &#10;        &#10;        &#10;        &#10;        &#10;        &#10;        &#10;        &#10;        &#10;        &#10;        &#10;        &#10;        &#10;        &#10;    </defs><g
   inkscape:label="Ebene 1"
   inkscape:groupmode="layer"
   id="layer1"
   transform="translate(-219.50001,0.5)" /><text
   xml:space="preserve"
   style="font-style:italic;font-variant:normal;font-size:3.175px;font-family:Constantia;-inkscape-font-specification:Constantia-Italic;writing-mode:lr-tb;fill:#000000;fill-opacity:1;fill-rule:nonzero;stroke:none;stroke-width:0.352778"
   id="text1095"
   x="31.66675"
   y="30.666668"><tspan
     sodipodi:role="line"
     id="tspan1093"
     x="31.66675"
     y="30.666668"
     style="stroke-width:0.352778" /></text><path
   id="path1061"
   style="fill:#575250;fill-opacity:1;fill-rule:nonzero;stroke:none;stroke-width:0.352778"
   d="M 1.508724,0.53445637 C 0.9643884,0.53445637 0.5,0.99864637 0.5,1.5514486 V 26.448636 c 0,0.544336 0.4643884,1.019577 1.008724,1.019577 h 1.95802 c 0.5443355,0 1.0092408,-0.465716 1.0092408,-1.019577 V 15.400732 h 9.4366322 v 11.047904 c 0,0.544336 0.464388,1.019577 1.008724,1.019577 h 1.95802 c 0.544336,0 1.008724,-0.465716 1.008724,-1.019577 V 1.5514486 c 0,-0.5443356 -0.464388,-1.01699223 -1.008724,-1.01699223 h -1.95802 c -0.544336,0 -1.008724,0.46419 -1.008724,1.01699223 V 11.63197 H 4.4759848 V 1.5514486 c 0,-0.55280223 -0.4649053,-1.01699223 -1.0092408,-1.01699223 z m 0,30.95469963 C 0.9643884,31.500096 0.5,31.974215 0.5,32.51855 v 1.987476 c 0,0.555271 0.4643884,1.027844 1.008724,1.027844 h 15.380455 c 0.544336,0 1.008208,-0.472573 1.008208,-1.027844 V 32.51855 c 0,-0.555272 -0.463872,-1.029394 -1.008208,-1.029394 z" /><text
   xml:space="preserve"
   style="font-variant:normal;font-weight:bold;font-size:3.175px;font-family:Arial;-inkscape-font-specification:Arial-BoldMT;writing-mode:lr-tb;fill:#000000;fill-opacity:1;fill-rule:nonzero;stroke:none;stroke-width:0.352778"
   id="text1069"
   x="20.214525"
   y="2.7728314"><tspan
     x="20.214525"
     y="2.7728314"
     sodipodi:role="line"
     id="tspan1065"
     style="font-style:normal;font-variant:normal;font-weight:normal;font-stretch:normal;font-family:Unit-Medium;-inkscape-font-specification:Unit-Medium;stroke-width:0.352778">HOCHSCHULE</tspan><tspan
     x="20.214525"
     y="6.9744053"
     sodipodi:role="line"
     id="tspan1067"
     style="font-style:normal;font-variant:normal;font-weight:normal;font-stretch:normal;font-family:Unit-Medium;-inkscape-font-specification:Unit-Medium;stroke-width:0.352778">HANNOVER</tspan><tspan
     x="20.214525"
     y="11.175979"
     sodipodi:role="line"
     style="font-style:normal;font-variant:normal;font-weight:normal;font-stretch:normal;font-family:Unit-Light;-inkscape-font-specification:Unit-Light;stroke-width:0.352778"
     id="tspan6">UNIVERSITY OF</tspan><tspan
     x="20.214525"
     y="15.377553"
     sodipodi:role="line"
     style="font-style:normal;font-variant:normal;font-weight:normal;font-stretch:normal;font-family:Unit-Light;-inkscape-font-specification:Unit-Light;stroke-width:0.352778"
     id="tspan10">APPLIED SIENCES</tspan><tspan
     x="20.214525"
     y="19.579126"
     sodipodi:role="line"
     style="font-style:normal;font-variant:normal;font-weight:normal;font-stretch:normal;font-family:Unit-Light;-inkscape-font-specification:Unit-Light;stroke-width:0.352778"
     id="tspan11">AND ARTS</tspan></text><path
   id="path15"
   style="fill:#31c3ed;fill-opacity:1;fill-rule:nonzero;stroke:none;stroke-width:0.352778"
   d="m 1.5087241,42.311734 c -0.54433564,0 -1.00872404,0.46419 -1.00872404,1.016992 v 24.897188 c 0,0.544336 0.4643884,1.019577 1.00872404,1.019577 h 1.95802 c 0.5443355,0 1.0092408,-0.465716 1.0092408,-1.019577 V 57.17801 h 9.4366321 v 11.047904 c 0,0.544336 0.464388,1.019577 1.008724,1.019577 h 1.95802 c 0.544336,0 1.008724,-0.465716 1.008724,-1.019577 V 43.328726 c 0,-0.544335 -0.464388,-1.016992 -1.008724,-1.016992 h -1.95802 c -0.544336,0 -1.008724,0.46419 -1.008724,1.016992 V 53.409248 H 4.4759849 V 43.328726 c 0,-0.552802 -0.4649053,-1.016992 -1.0092408,-1.016992 z m 0,30.9547 c -0.54433564,0.01094 -1.00872404,0.485059 -1.00872404,1.029394 v 1.987476 c 0,0.555271 0.4643884,1.027844 1.00872404,1.027844 H 16.889179 c 0.544336,0 1.008208,-0.472573 1.008208,-1.027844 v -1.987476 c 0,-0.555272 -0.463872,-1.029394 -1.008208,-1.029394 z" /><text
   xml:space="preserve"
   style="font-variant:normal;font-weight:bold;font-size:3.175px;font-family:Arial;-inkscape-font-specification:Arial-BoldMT;writing-mode:lr-tb;fill:#000000;fill-opacity:1;fill-rule:nonzero;stroke:none;stroke-width:0.352778"
   id="text19"
   x="20.214525"
   y="44.55011"><tspan
     x="20.214525"
     y="44.55011"
     sodipodi:role="line"
     id="tspan15"
     style="font-style:normal;font-variant:normal;font-weight:normal;font-stretch:normal;font-family:Unit-Medium;-inkscape-font-specification:Unit-Medium;stroke-width:0.352778">HOCHSCHULE</tspan><tspan
     x="20.214525"
     y="48.751682"
     sodipodi:role="line"
     id="tspan16"
     style="font-style:normal;font-variant:normal;font-weight:normal;font-stretch:normal;font-family:Unit-Medium;-inkscape-font-specification:Unit-Medium;stroke-width:0.352778">HANNOVER</tspan><tspan
     x="20.214525"
     y="52.953259"
     sodipodi:role="line"
     style="font-style:normal;font-variant:normal;font-weight:normal;font-stretch:normal;font-family:Unit-Light;-inkscape-font-specification:Unit-Light;stroke-width:0.352778"
     id="tspan17">UNIVERSITY OF</tspan><tspan
     x="20.214525"
     y="57.154831"
     sodipodi:role="line"
     style="font-style:normal;font-variant:normal;font-weight:normal;font-stretch:normal;font-family:Unit-Light;-inkscape-font-specification:Unit-Light;stroke-width:0.352778"
     id="tspan18">APPLIED SIENCES</tspan><tspan
     x="20.214525"
     y="61.356403"
     sodipodi:role="line"
     style="font-style:normal;font-variant:normal;font-weight:normal;font-stretch:normal;font-family:Unit-Light;-inkscape-font-specification:Unit-Light;stroke-width:0.352778"
     id="tspan19">AND ARTS</tspan></text><text
   xml:space="preserve"
   style="font-style:italic;font-variant:normal;font-weight:300;font-stretch:normal;font-size:3.175px;line-height:1.25;font-family:UnitSlab;-inkscape-font-specification:'UnitSlab Light Italic';stroke-width:0.352778"
   x="20.151026"
   y="68.564369"
   id="text25"><tspan
     sodipodi:role="line"
     id="tspan21"
     x="20.151026"
     y="68.564369"
     style="stroke-width:0.352778"><tspan
       style="font-style:italic;font-variant:normal;font-weight:300;font-stretch:normal;font-family:UnitSlab;-inkscape-font-specification:'UnitSlab Light Italic';stroke-width:0.352778"
       id="tspan20">Fakultät I</tspan></tspan><tspan
     sodipodi:role="line"
     id="tspan23"
     x="20.151026"
     y="72.533119"
     style="stroke-width:0.352778"><tspan
       style="font-style:italic;font-variant:normal;font-weight:300;font-stretch:normal;font-family:UnitSlab;-inkscape-font-specification:'UnitSlab Light Italic';stroke-width:0.352778"
       id="tspan22">Elektro- und</tspan></tspan><tspan
     sodipodi:role="line"
     x="20.151026"
     y="76.501869"
     style="stroke-width:0.352778"
     id="tspan1"><tspan
       style="font-style:italic;font-variant:normal;font-weight:300;font-stretch:normal;font-family:UnitSlab;-inkscape-font-specification:'UnitSlab Light Italic';stroke-width:0.352778"
       id="tspan2">Informationstechnik</tspan></tspan><tspan
     sodipodi:role="line"
     x="20.151026"
     y="76.501869"
     id="tspan25"
     style="stroke-width:0.352778"><tspan
       style="font-style:italic;font-variant:normal;font-weight:300;font-stretch:normal;font-family:UnitSlab;-inkscape-font-specification:'UnitSlab Light Italic';stroke-width:0.352778"
       id="tspan24" /></tspan></text><path
   style="font-size:9px;font-family:Unit-Light;-inkscape-font-specification:Unit-Light;stroke-width:0.352778"
   d="m 20.392324,63.742777 h 0.568325 v 0.1905 h -0.568325 z"
   id="path25"
   aria-label="-" /><path
   id="path27"
   style="fill:#a6d200;fill-opacity:1;fill-rule:nonzero;stroke:none;stroke-width:0.352778"
   d="m 1.508724,84.123466 c -0.54433559,0 -1.00872399,0.46419 -1.00872399,1.016992 v 24.897192 c 0,0.54433 0.4643884,1.01957 1.00872399,1.01957 h 1.95802 c 0.5443355,0 1.0092408,-0.46571 1.0092408,-1.01957 V 98.989742 h 9.4366322 v 11.047908 c 0,0.54433 0.464388,1.01957 1.008724,1.01957 h 1.95802 c 0.544336,0 1.008724,-0.46571 1.008724,-1.01957 V 85.140458 c 0,-0.544335 -0.464388,-1.016992 -1.008724,-1.016992 h -1.95802 c -0.544336,0 -1.008724,0.46419 -1.008724,1.016992 V 95.22098 H 4.4759848 V 85.140458 c 0,-0.552802 -0.4649053,-1.016992 -1.0092408,-1.016992 z m 0,30.954704 c -0.54433559,0.0109 -1.00872399,0.48505 -1.00872399,1.02939 v 1.98748 c 0,0.55527 0.4643884,1.02784 1.00872399,1.02784 h 15.380455 c 0.544336,0 1.008208,-0.47257 1.008208,-1.02784 v -1.98748 c 0,-0.55527 -0.463872,-1.02939 -1.008208,-1.02939 z" /><text
   xml:space="preserve"
   style="font-variant:normal;font-weight:bold;font-size:3.175px;font-family:Arial;-inkscape-font-specification:Arial-BoldMT;writing-mode:lr-tb;fill:#000000;fill-opacity:1;fill-rule:nonzero;stroke:none;stroke-width:0.352778"
   id="text31"
   x="20.214525"
   y="86.361839"><tspan
     x="20.214525"
     y="86.361839"
     sodipodi:role="line"
     id="tspan27"
     style="font-style:normal;font-variant:normal;font-weight:normal;font-stretch:normal;font-family:Unit-Medium;-inkscape-font-specification:Unit-Medium;stroke-width:0.352778">HOCHSCHULE</tspan><tspan
     x="20.214525"
     y="90.563416"
     sodipodi:role="line"
     id="tspan28"
     style="font-style:normal;font-variant:normal;font-weight:normal;font-stretch:normal;font-family:Unit-Medium;-inkscape-font-specification:Unit-Medium;stroke-width:0.352778">HANNOVER</tspan><tspan
     x="20.214525"
     y="94.764984"
     sodipodi:role="line"
     style="font-style:normal;font-variant:normal;font-weight:normal;font-stretch:normal;font-family:Unit-Light;-inkscape-font-specification:Unit-Light;stroke-width:0.352778"
     id="tspan29">UNIVERSITY OF</tspan><tspan
     x="20.214525"
     y="98.96656"
     sodipodi:role="line"
     style="font-style:normal;font-variant:normal;font-weight:normal;font-stretch:normal;font-family:Unit-Light;-inkscape-font-specification:Unit-Light;stroke-width:0.352778"
     id="tspan30">APPLIED SIENCES</tspan><tspan
     x="20.214525"
     y="103.16814"
     sodipodi:role="line"
     style="font-style:normal;font-variant:normal;font-weight:normal;font-stretch:normal;font-family:Unit-Light;-inkscape-font-specification:Unit-Light;stroke-width:0.352778"
     id="tspan31">AND ARTS</tspan></text><text
   xml:space="preserve"
   style="font-style:italic;font-variant:normal;font-weight:300;font-stretch:normal;font-size:3.175px;line-height:1.25;font-family:UnitSlab;-inkscape-font-specification:'UnitSlab Light Italic';stroke-width:0.352778"
   x="20.151026"
   y="110.37611"
   id="text37"><tspan
     sodipodi:role="line"
     id="tspan33"
     x="20.151026"
     y="110.37611"
     style="font-style:italic;font-variant:normal;font-weight:300;font-stretch:normal;font-family:UnitSlab;-inkscape-font-specification:'UnitSlab Light Italic';stroke-width:0.352778">Fakultät II</tspan><tspan
     sodipodi:role="line"
     x="20.151026"
     y="114.34486"
     id="tspan37"
     style="stroke-width:0.352778">Maschinenbau und</tspan><tspan
     sodipodi:role="line"
     x="20.151026"
     y="118.31361"
     style="stroke-width:0.352778"
     id="tspan74">Bioverfahrenstechnik</tspan></text><path
   style="font-size:9px;font-family:Unit-Light;-inkscape-font-specification:Unit-Light;stroke-width:0.352778"
   d="m 20.392324,105.55451 h 0.568325 v 0.1905 h -0.568325 z"
   id="path37"
   aria-label="-" /><path
   id="path38"
   style="fill:#ffac14;fill-opacity:1;fill-rule:nonzero;stroke:none;stroke-width:0.352778"
   d="m 1.508724,125.9352 c -0.54433559,0 -1.00872399,0.46419 -1.00872399,1.01699 v 24.89719 c 0,0.54434 0.4643884,1.01958 1.00872399,1.01958 h 1.95802 c 0.5443355,0 1.0092408,-0.46572 1.0092408,-1.01958 v -11.0479 h 9.4366322 v 11.0479 c 0,0.54434 0.464388,1.01958 1.008724,1.01958 h 1.95802 c 0.544336,0 1.008724,-0.46572 1.008724,-1.01958 v -24.89719 c 0,-0.54433 -0.464388,-1.01699 -1.008724,-1.01699 h -1.95802 c -0.544336,0 -1.008724,0.46419 -1.008724,1.01699 v 10.08052 H 4.4759848 v -10.08052 c 0,-0.5528 -0.4649053,-1.01699 -1.0092408,-1.01699 z m 0,30.9547 c -0.54433559,0.0109 -1.00872399,0.48506 -1.00872399,1.02939 v 1.98748 c 0,0.55527 0.4643884,1.02784 1.00872399,1.02784 h 15.380455 c 0.544336,0 1.008208,-0.47257 1.008208,-1.02784 v -1.98748 c 0,-0.55527 -0.463872,-1.02939 -1.008208,-1.02939 z" /><text
   xml:space="preserve"
   style="font-variant:normal;font-weight:bold;font-size:3.175px;font-family:Arial;-inkscape-font-specification:Arial-BoldMT;writing-mode:lr-tb;fill:#000000;fill-opacity:1;fill-rule:nonzero;stroke:none;stroke-width:0.352778"
   id="text42"
   x="20.214525"
   y="128.17357"><tspan
     x="20.214525"
     y="128.17357"
     sodipodi:role="line"
     id="tspan38"
     style="font-style:normal;font-variant:normal;font-weight:normal;font-stretch:normal;font-family:Unit-Medium;-inkscape-font-specification:Unit-Medium;stroke-width:0.352778">HOCHSCHULE</tspan><tspan
     x="20.214525"
     y="132.37514"
     sodipodi:role="line"
     id="tspan39"
     style="font-style:normal;font-variant:normal;font-weight:normal;font-stretch:normal;font-family:Unit-Medium;-inkscape-font-specification:Unit-Medium;stroke-width:0.352778">HANNOVER</tspan><tspan
     x="20.214525"
     y="136.57672"
     sodipodi:role="line"
     style="font-style:normal;font-variant:normal;font-weight:normal;font-stretch:normal;font-family:Unit-Light;-inkscape-font-specification:Unit-Light;stroke-width:0.352778"
     id="tspan40">UNIVERSITY OF</tspan><tspan
     x="20.214525"
     y="140.77829"
     sodipodi:role="line"
     style="font-style:normal;font-variant:normal;font-weight:normal;font-stretch:normal;font-family:Unit-Light;-inkscape-font-specification:Unit-Light;stroke-width:0.352778"
     id="tspan41">APPLIED SIENCES</tspan><tspan
     x="20.214525"
     y="144.97986"
     sodipodi:role="line"
     style="font-style:normal;font-variant:normal;font-weight:normal;font-stretch:normal;font-family:Unit-Light;-inkscape-font-specification:Unit-Light;stroke-width:0.352778"
     id="tspan42">AND ARTS</tspan></text><text
   xml:space="preserve"
   style="font-style:italic;font-variant:normal;font-weight:300;font-stretch:normal;font-size:3.175px;line-height:1.25;font-family:UnitSlab;-inkscape-font-specification:'UnitSlab Light Italic';stroke-width:0.352778"
   x="20.151026"
   y="152.18784"
   id="text48"><tspan
     sodipodi:role="line"
     id="tspan44"
     x="20.151026"
     y="152.18784"
     style="font-style:italic;font-variant:normal;font-weight:300;font-stretch:normal;font-family:UnitSlab;-inkscape-font-specification:'UnitSlab Light Italic';stroke-width:0.352778">Fakultät III</tspan><tspan
     sodipodi:role="line"
     x="20.151026"
     y="156.15659"
     id="tspan48"
     style="stroke-width:0.352778">Medien, Information</tspan><tspan
     sodipodi:role="line"
     x="20.151026"
     y="160.12534"
     style="stroke-width:0.352778"
     id="tspan75">und Design</tspan></text><path
   style="font-size:9px;font-family:Unit-Light;-inkscape-font-specification:Unit-Light;stroke-width:0.352778"
   d="m 20.392324,147.36624 h 0.568325 v 0.1905 h -0.568325 z"
   id="path48"
   aria-label="-" /><path
   id="path49"
   style="fill:#f04105;fill-opacity:1;fill-rule:nonzero;stroke:none;stroke-width:0.352778"
   d="m 1.508724,167.74693 c -0.54433559,0 -1.00872399,0.46419 -1.00872399,1.017 v 24.89718 c 0,0.54434 0.4643884,1.01958 1.00872399,1.01958 h 1.95802 c 0.5443355,0 1.0092408,-0.46572 1.0092408,-1.01958 v -11.0479 h 9.4366322 v 11.0479 c 0,0.54434 0.464388,1.01958 1.008724,1.01958 h 1.95802 c 0.544336,0 1.008724,-0.46572 1.008724,-1.01958 v -24.89718 c 0,-0.54434 -0.464388,-1.017 -1.008724,-1.017 h -1.95802 c -0.544336,0 -1.008724,0.46419 -1.008724,1.017 v 10.08052 H 4.4759848 v -10.08052 c 0,-0.55281 -0.4649053,-1.017 -1.0092408,-1.017 z m 0,30.9547 c -0.54433559,0.0109 -1.00872399,0.48506 -1.00872399,1.0294 v 1.98747 c 0,0.55527 0.4643884,1.02785 1.00872399,1.02785 h 15.380455 c 0.544336,0 1.008208,-0.47258 1.008208,-1.02785 v -1.98747 c 0,-0.55527 -0.463872,-1.0294 -1.008208,-1.0294 z" /><text
   xml:space="preserve"
   style="font-variant:normal;font-weight:bold;font-size:3.175px;font-family:Arial;-inkscape-font-specification:Arial-BoldMT;writing-mode:lr-tb;fill:#000000;fill-opacity:1;fill-rule:nonzero;stroke:none;stroke-width:0.352778"
   id="text53"
   x="20.214525"
   y="169.98531"><tspan
     x="20.214525"
     y="169.98531"
     sodipodi:role="line"
     id="tspan49"
     style="font-style:normal;font-variant:normal;font-weight:normal;font-stretch:normal;font-family:Unit-Medium;-inkscape-font-specification:Unit-Medium;stroke-width:0.352778">HOCHSCHULE</tspan><tspan
     x="20.214525"
     y="174.18687"
     sodipodi:role="line"
     id="tspan50"
     style="font-style:normal;font-variant:normal;font-weight:normal;font-stretch:normal;font-family:Unit-Medium;-inkscape-font-specification:Unit-Medium;stroke-width:0.352778">HANNOVER</tspan><tspan
     x="20.214525"
     y="178.38846"
     sodipodi:role="line"
     style="font-style:normal;font-variant:normal;font-weight:normal;font-stretch:normal;font-family:Unit-Light;-inkscape-font-specification:Unit-Light;stroke-width:0.352778"
     id="tspan51">UNIVERSITY OF</tspan><tspan
     x="20.214525"
     y="182.59003"
     sodipodi:role="line"
     style="font-style:normal;font-variant:normal;font-weight:normal;font-stretch:normal;font-family:Unit-Light;-inkscape-font-specification:Unit-Light;stroke-width:0.352778"
     id="tspan52">APPLIED SIENCES</tspan><tspan
     x="20.214525"
     y="186.7916"
     sodipodi:role="line"
     style="font-style:normal;font-variant:normal;font-weight:normal;font-stretch:normal;font-family:Unit-Light;-inkscape-font-specification:Unit-Light;stroke-width:0.352778"
     id="tspan53">AND ARTS</tspan></text><text
   xml:space="preserve"
   style="font-style:italic;font-variant:normal;font-weight:300;font-stretch:normal;font-size:3.175px;line-height:1.25;font-family:UnitSlab;-inkscape-font-specification:'UnitSlab Light Italic';stroke-width:0.352778"
   x="20.151026"
   y="193.99957"
   id="text59"><tspan
     sodipodi:role="line"
     id="tspan55"
     x="20.151026"
     y="193.99957"
     style="font-style:italic;font-variant:normal;font-weight:300;font-stretch:normal;font-family:UnitSlab;-inkscape-font-specification:'UnitSlab Light Italic';stroke-width:0.352778">Fakultät IV</tspan><tspan
     sodipodi:role="line"
     x="20.151026"
     y="197.96832"
     id="tspan59"
     style="stroke-width:0.352778">Wirtschaft und</tspan><tspan
     sodipodi:role="line"
     x="20.151026"
     y="201.93707"
     style="stroke-width:0.352778"
     id="tspan76">Informatik</tspan></text><path
   style="font-size:9px;font-family:Unit-Light;-inkscape-font-specification:Unit-Light;stroke-width:0.352778"
   d="m 20.392324,189.17798 h 0.568325 v 0.1905 h -0.568325 z"
   id="path59"
   aria-label="-" /><path
   id="path60"
   style="fill:#d64d9f;fill-opacity:1;fill-rule:nonzero;stroke:none;stroke-width:0.352778"
   d="m 1.508724,209.55866 c -0.54433559,0 -1.00872399,0.46419 -1.00872399,1.017 v 24.89718 c 0,0.54434 0.4643884,1.01958 1.00872399,1.01958 h 1.95802 c 0.5443355,0 1.0092408,-0.46572 1.0092408,-1.01958 v -11.0479 h 9.4366322 v 11.0479 c 0,0.54434 0.464388,1.01958 1.008724,1.01958 h 1.95802 c 0.544336,0 1.008724,-0.46572 1.008724,-1.01958 v -24.89718 c 0,-0.54434 -0.464388,-1.017 -1.008724,-1.017 h -1.95802 c -0.544336,0 -1.008724,0.46419 -1.008724,1.017 v 10.08052 H 4.4759848 v -10.08052 c 0,-0.55281 -0.4649053,-1.017 -1.0092408,-1.017 z m 0,30.9547 c -0.54433559,0.0109 -1.00872399,0.48506 -1.00872399,1.0294 v 1.98747 c 0,0.55527 0.4643884,1.02785 1.00872399,1.02785 h 15.380455 c 0.544336,0 1.008208,-0.47258 1.008208,-1.02785 v -1.98747 c 0,-0.55527 -0.463872,-1.0294 -1.008208,-1.0294 z" /><text
   xml:space="preserve"
   style="font-variant:normal;font-weight:bold;font-size:3.175px;font-family:Arial;-inkscape-font-specification:Arial-BoldMT;writing-mode:lr-tb;fill:#000000;fill-opacity:1;fill-rule:nonzero;stroke:none;stroke-width:0.352778"
   id="text64"
   x="20.214525"
   y="211.79704"><tspan
     x="20.214525"
     y="211.79704"
     sodipodi:role="line"
     id="tspan60"
     style="font-style:normal;font-variant:normal;font-weight:normal;font-stretch:normal;font-family:Unit-Medium;-inkscape-font-specification:Unit-Medium;stroke-width:0.352778">HOCHSCHULE</tspan><tspan
     x="20.214525"
     y="215.99861"
     sodipodi:role="line"
     id="tspan61"
     style="font-style:normal;font-variant:normal;font-weight:normal;font-stretch:normal;font-family:Unit-Medium;-inkscape-font-specification:Unit-Medium;stroke-width:0.352778">HANNOVER</tspan><tspan
     x="20.214525"
     y="220.2002"
     sodipodi:role="line"
     style="font-style:normal;font-variant:normal;font-weight:normal;font-stretch:normal;font-family:Unit-Light;-inkscape-font-specification:Unit-Light;stroke-width:0.352778"
     id="tspan62">UNIVERSITY OF</tspan><tspan
     x="20.214525"
     y="224.40176"
     sodipodi:role="line"
     style="font-style:normal;font-variant:normal;font-weight:normal;font-stretch:normal;font-family:Unit-Light;-inkscape-font-specification:Unit-Light;stroke-width:0.352778"
     id="tspan63">APPLIED SIENCES</tspan><tspan
     x="20.214525"
     y="228.60333"
     sodipodi:role="line"
     style="font-style:normal;font-variant:normal;font-weight:normal;font-stretch:normal;font-family:Unit-Light;-inkscape-font-specification:Unit-Light;stroke-width:0.352778"
     id="tspan64">AND ARTS</tspan></text><text
   xml:space="preserve"
   style="font-style:italic;font-variant:normal;font-weight:300;font-stretch:normal;font-size:3.175px;line-height:1.25;font-family:UnitSlab;-inkscape-font-specification:'UnitSlab Light Italic';stroke-width:0.352778"
   x="20.151026"
   y="235.81131"
   id="text70"><tspan
     sodipodi:role="line"
     id="tspan66"
     x="20.151026"
     y="235.81131"
     style="font-style:italic;font-variant:normal;font-weight:300;font-stretch:normal;font-family:UnitSlab;-inkscape-font-specification:'UnitSlab Light Italic';stroke-width:0.352778">Fakultät V</tspan><tspan
     sodipodi:role="line"
     x="20.151026"
     y="239.78006"
     id="tspan70"
     style="stroke-width:0.352778">Diakonie, Gesundheit</tspan><tspan
     sodipodi:role="line"
     x="20.151026"
     y="243.74881"
     style="stroke-width:0.352778"
     id="tspan77">und Soziales</tspan></text><path
   style="font-size:9px;font-family:Unit-Light;-inkscape-font-specification:Unit-Light;stroke-width:0.352778"
   d="m 20.392324,230.98971 h 0.568325 v 0.1905 h -0.568325 z"
   id="path70"
   aria-label="-" /></svg>
